<svg viewBox="0 0 1080 1080" fill="none" xmlns="http://www.w3.org/2000/svg">      <defs>  <filter id="filter" x="-20%" y="-20%" width="140%" height="140%" filterUnits="objectBoundingBox" primitiveUnits="userSpaceOnUse" color-interpolation-filters="linearRGB">    <feMorphology operator="dilate" radius="20 20" in="SourceAlpha" result="morphology"/>    <feFlood flood-color="#ffffff" flood-opacity="1" result="flood"/>    <feComposite in="flood" in2="morphology" operator="in" result="composite"/>    <feMerge result="merge">          <feMergeNode in="composite" result="mergeNode"/>      <feMergeNode in="SourceGraphic" result="mergeNode1"/>      </feMerge>  </filter></defs>      <g id="notion-avatar" filter="url(#filter)">        <g id="notion-avatar-face" fill="#ffffff">      <!--?xml version="1.0" encoding="UTF-8"?-->    <title>Face/ 11</title>    <g id="Face/-11" stroke="none" stroke-width="1" fill-rule="evenodd" stroke-linecap="round" stroke-linejoin="round">        <path d="M532,379 C664.54834,379 772,486.45166 772,619 C772,642.160109 783.234546,666.244677 777.453024,688.979248 C763.583554,743.517917 672,879 608,899 C513.514707,928.526654 373.476049,816.010833 320.189513,718.584987 C317.498129,718.859681 314.765451,719 312,719 C267.81722,719 232,683.18278 232,639 C232,599.134956 261.158843,566.080325 299.312086,560.00055 C325.599297,455.979213 419.809919,379 532,379 Z M295.858895,624.545187 L304.141105,655.454813" id="Path" stroke="#000000" stroke-width="24"/>    </g>    </g><g id="notion-avatar-nose">      <!--?xml version="1.0" encoding="UTF-8"?-->    <title>Nose/ 3</title>    <g id="Nose/-3" stroke="none" stroke-width="1" fill="none" fill-rule="evenodd" stroke-linecap="round" stroke-linejoin="round">        <path d="M636.843465,595.910607 C654.994141,637.483681 663.279537,666.31686 661.699654,682.410144 C660.11977,698.503428 648.515798,703.474491 626.887739,697.323331" id="Line" stroke="#000000" stroke-width="16" transform="translate(644.388576, 647.892684) rotate(1.032339) translate(-644.388576, -647.892684) "/>    </g>    </g><g id="notion-avatar-mouth">      <!--?xml version="1.0" encoding="UTF-8"?-->    <title>Mouth/ 1</title>    <g id="Mouth/-1" stroke="none" stroke-width="1" fill="none" fill-rule="evenodd" stroke-linecap="round" stroke-linejoin="round">        <path d="M549,759 C575.12979,773.666667 603.12979,781 633,781 C662.87021,781 682.87021,773.666667 693,759" id="Path" stroke="#000000" stroke-width="16"/>    </g>    </g><g id="notion-avatar-eyes">      <!--?xml version="1.0" encoding="UTF-8"?-->    <title>Eyes/ 10</title>    <g id="Eyes/-10" stroke="none" stroke-width="1" fill="none" fill-rule="evenodd">        <g id="Group" transform="translate(520.000000, 512.000000)">            <g transform="translate(140.000000, 0.000000)">                <circle id="Oval" fill="#000000" cx="52" cy="28" r="24"/>                <path d="M1,16 C24.2727273,8 41.7272727,4 53.3636364,4 C65,4 79.5454545,8 97,16" id="Path" stroke="#000000" stroke-width="12" stroke-linecap="round" stroke-linejoin="round" transform="translate(49.000000, 10.000000) rotate(-4.000000) translate(-49.000000, -10.000000) "/>            </g>            <g>                <circle id="Oval" fill="#000000" transform="translate(46.000000, 28.000000) scale(-1, 1) translate(-46.000000, -28.000000) " cx="46" cy="28" r="24"/>                <path d="M1,16 C24.2727273,8 41.7272727,4 53.3636364,4 C65,4 79.5454545,8 97,16" id="Path" stroke="#000000" stroke-width="12" stroke-linecap="round" stroke-linejoin="round" transform="translate(49.000000, 10.000000) scale(-1, 1) rotate(-4.000000) translate(-49.000000, -10.000000) "/>            </g>        </g>    </g>    </g><g id="notion-avatar-eyebrows">      <!--?xml version="1.0" encoding="UTF-8"?-->    <title>Eyebrows/ 5</title>    <g id="Eyebrows/-5" stroke="none" stroke-width="1" fill="none" fill-rule="evenodd" stroke-linecap="round" stroke-linejoin="round">        <g id="Group" transform="translate(517.000000, 471.000000)" stroke="#000000" stroke-width="24">            <line x1="1" y1="27.4172651" x2="76.8548788" y2="2" id="Path" transform="translate(38.927439, 14.708633) rotate(2.524843) translate(-38.927439, -14.708633) "/>            <line x1="166" y1="27.4172651" x2="241.854879" y2="2" id="Path" transform="translate(203.927439, 14.708633) scale(-1, 1) rotate(2.524843) translate(-203.927439, -14.708633) "/>        </g>    </g>    </g><g id="notion-avatar-glasses">      <!--?xml version="1.0" encoding="UTF-8"?-->    <title>Glasses/ 0</title>    <g id="Glasses/-0" stroke="none" stroke-width="1" fill="none" fill-rule="evenodd"/>    </g><g id="notion-avatar-hair">      <g id="Hairstyle/ 43"><path id="Path" fill-rule="evenodd" clip-rule="evenodd" d="M544 253L528.944 271.167C568.315 256.389 601 263 643 291C706 333 701 361 720 386C732.667 402.667 746.667 415.333 762 424C762 424 708.001 418.452 694.769 415.145L694.288 415.024C680.115 411.421 663.105 401.882 643.257 386.407L647.113 390.676C658.226 402.896 667.201 412.043 674.038 418.118C681.648 424.88 713.55 438.841 727 446C727 446 671 442 645.285 427.18C619.571 412.36 594.198 392.866 574 388C570.218 387.089 565.105 386.179 559.065 385.407L560.454 387.861C570.848 406.356 583.419 431.126 605 445C623.667 457 642.667 464.333 662 467C620.448 461.431 589.115 443.765 568 414C560.977 404.101 553.193 394.101 544.647 384.002C517.805 382.135 482.078 383.605 458.704 395.632L455.959 397.071C422.61 414.405 388.806 424.43 379.296 445.522C364.032 479.374 379 498.408 379 516L378.995 516.737L378.98 517.53L378.957 518.382C378.513 532.298 374.679 573.294 367.453 641.371L366 655L328.117 564.825H287.146C271.78 507.747 268.106 468.653 276.123 447.542C280.074 437.137 290.485 420.339 307.26 402.225C304.179 389.659 303.282 378.973 304.569 370.165C306.797 354.915 317.598 331.455 336.97 299.784V326.08C365.15 298.583 393.771 280.278 422.832 271.167C451.892 262.056 492.282 256 544 253Z" fill="black" stroke="black" stroke-width="12" stroke-linecap="round" stroke-linejoin="round"/></g>    </g><g id="notion-avatar-accessories">      <!--?xml version="1.0" encoding="UTF-8"?-->    <title>Accessories/ 0</title>    <g id="Accessories/-0" stroke="none" stroke-width="1" fill="none" fill-rule="evenodd"/>    </g><g id="notion-avatar-details">      <!--?xml version="1.0" encoding="UTF-8"?-->    <title>Details/ 0</title>    <g id="Details/-0" stroke="none" stroke-width="1" fill="none" fill-rule="evenodd"/>    </g><g id="notion-avatar-beard">      <g id="Beard/ 13"><g id="Shape"><path fill-rule="evenodd" clip-rule="evenodd" d="M369.784 644C393.129 725.816 419.796 770.483 449.784 778C494.767 789.275 498.784 731 532.784 712C566.784 693 623.784 715 659.784 715C695.784 715 758.703 700.707 771.784 705C784.866 709.293 783.106 837.47 724.784 899C693.941 926.615 681.399 926.571 623.784 927C566.17 927.429 482.098 914.714 411.784 857C364.909 818.524 347.575 747.524 359.784 644H369.784ZM550.784 724C533.514 736.44 501.515 784.317 518.784 798C536.054 811.683 595.517 796 633.784 796C672.052 796 713.028 804.22 718.784 798C724.541 791.78 721.784 743 705.784 731C689.784 719 656.694 736 638.784 736C620.875 736 568.054 711.56 550.784 724Z" fill="black"/><path d="M369.784 644L375.554 642.354C374.819 639.777 372.464 638 369.784 638V644ZM449.784 778L448.325 783.82L449.784 778ZM724.784 899L728.786 903.47C728.909 903.361 729.026 903.247 729.139 903.128L724.784 899ZM411.784 857L407.977 861.638L411.784 857ZM359.784 644V638C356.742 638 354.182 640.276 353.826 643.297L359.784 644ZM638.784 736V730V736ZM364.014 645.646C375.752 686.782 388.426 718.965 402.141 741.938C415.766 764.76 431.014 779.481 448.325 783.82L451.243 772.18C438.566 769.002 425.486 757.631 412.445 735.787C399.493 714.093 387.162 683.035 375.554 642.354L364.014 645.646ZM448.325 783.82C460.941 786.982 471.245 785.335 479.948 780.313C488.362 775.457 494.762 767.729 500.318 759.795C503.115 755.8 505.824 751.561 508.477 747.469C511.16 743.33 513.814 739.294 516.629 735.471C522.274 727.806 528.294 721.383 535.711 717.238L529.857 706.762C520.275 712.117 513.043 720.104 506.966 728.356C503.92 732.493 501.096 736.793 498.407 740.942C495.687 745.138 493.129 749.14 490.488 752.912C485.167 760.512 480.002 766.426 473.95 769.92C468.185 773.246 461.119 774.656 451.243 772.18L448.325 783.82ZM535.711 717.238C550.806 708.802 571.717 709.194 594.726 712.32C606.139 713.871 617.434 715.984 628.578 717.783C639.54 719.552 650.264 721 659.784 721V709C651.304 709 641.403 707.698 630.49 705.936C619.76 704.204 607.929 702.004 596.342 700.43C573.352 697.306 548.762 696.198 529.857 706.762L535.711 717.238ZM659.784 721C678.302 721 703.533 717.343 725.204 714.333C736.165 712.811 746.231 711.449 754.358 710.728C758.42 710.368 761.88 710.179 764.653 710.197C767.563 710.216 769.203 710.468 769.913 710.701L773.655 699.299C771.096 698.459 767.907 698.218 764.732 698.197C761.419 698.176 757.536 698.399 753.298 698.775C744.823 699.527 734.457 700.933 723.553 702.447C701.495 705.511 677.266 709 659.784 709V721ZM769.913 710.701C768.666 710.292 768.461 709.529 768.866 710.225C769.19 710.784 769.647 711.855 770.12 713.609C771.058 717.082 771.8 722.222 772.17 728.808C772.907 741.911 772.124 759.84 769.128 779.638C763.105 819.439 748.347 865.419 720.43 894.872L729.139 903.128C759.543 871.051 774.827 822.177 780.993 781.434C784.092 760.96 784.942 742.194 784.151 728.134C783.758 721.138 782.947 715.079 781.705 710.48C781.089 708.198 780.299 706.016 779.24 704.195C778.262 702.512 776.537 700.245 773.655 699.299L769.913 710.701ZM720.782 894.53C705.688 908.044 695.712 914.212 682.889 917.369C669.549 920.653 652.868 920.783 623.74 921L623.829 933C652.315 932.788 670.713 932.725 685.758 929.021C701.321 925.189 713.038 917.571 728.786 903.47L720.782 894.53ZM623.74 921C566.901 921.424 484.417 908.856 415.591 852.362L407.977 861.638C479.778 920.573 565.438 933.435 623.829 933L623.74 921ZM415.591 852.362C371.172 815.902 353.6 747.662 365.743 644.703L353.826 643.297C341.55 747.385 358.645 821.145 407.977 861.638L415.591 852.362ZM359.784 650H369.784V638H359.784V650ZM547.277 719.132C537.641 726.073 524.784 742.006 516.52 757.744C512.364 765.658 509.088 774.041 508.118 781.656C507.155 789.221 508.365 797.4 515.058 802.703L522.51 793.297C520.568 791.759 519.303 788.821 520.022 783.172C520.735 777.574 523.3 770.644 527.144 763.323C534.88 748.592 546.658 734.367 554.291 728.868L547.277 719.132ZM515.058 802.703C520.925 807.351 529.516 808.986 538.341 809.452C547.422 809.931 558.047 809.212 569.015 808.101C591.4 805.832 615.046 802 633.784 802V790C614.255 790 589.035 794.01 567.805 796.162C556.965 797.26 547.094 797.897 538.973 797.468C530.596 797.026 525.278 795.49 522.51 793.297L515.058 802.703ZM633.784 802C652.602 802 672.053 804.02 687.991 805.313C695.846 805.95 702.985 806.421 708.575 806.31C711.362 806.255 714.013 806.053 716.294 805.569C718.37 805.129 721.171 804.255 723.188 802.076L714.381 793.924C714.959 793.3 715.22 793.53 713.803 793.83C712.592 794.088 710.798 794.264 708.337 794.313C703.429 794.41 696.852 793.992 688.961 793.352C673.405 792.09 653.234 790 633.784 790V802ZM723.188 802.076C725.045 800.068 725.902 797.28 726.385 795.159C726.93 792.763 727.262 789.937 727.423 786.915C727.747 780.849 727.416 773.411 726.388 765.858C725.361 758.314 723.609 750.426 720.983 743.523C718.417 736.777 714.734 730.212 709.384 726.2L702.184 735.8C704.835 737.788 707.496 741.821 709.767 747.79C711.978 753.603 713.555 760.549 714.498 767.477C715.439 774.396 715.718 781.07 715.44 786.275C715.3 788.888 715.028 790.987 714.684 792.496C714.278 794.28 713.962 794.377 714.381 793.924L723.188 802.076ZM709.384 726.2C704.006 722.166 697.527 720.825 691.184 720.72C684.849 720.614 678.112 721.733 671.712 723.14C665.458 724.515 658.677 726.375 653.161 727.696C647.301 729.1 642.485 730 638.784 730V742C644.038 742 650.074 740.775 655.956 739.366C662.182 737.875 668.031 736.235 674.288 734.86C680.399 733.517 686.055 732.636 690.984 732.718C695.905 732.8 699.563 733.834 702.184 735.8L709.384 726.2ZM638.784 730C635.24 730 629.355 728.719 621.476 726.584C614.067 724.577 604.792 721.789 596.047 719.526C587.16 717.227 577.948 715.224 569.725 714.642C561.755 714.078 553.384 714.733 547.277 719.132L554.291 728.868C556.819 727.047 561.527 726.092 568.878 726.612C575.975 727.114 584.326 728.889 593.041 731.144C601.899 733.436 610.267 735.98 618.338 738.167C625.94 740.226 633.374 742 638.784 742V730Z" fill="black"/></g></g>    </g>      </g>      </svg>